<?xml version="1.0" standalone="no"?>
<!DOCTYPE svg PUBLIC "-//W3C//DTD SVG 20010904//EN"
 "http://www.w3.org/TR/2001/REC-SVG-20010904/DTD/svg10.dtd">
<svg version="1.0" xmlns="http://www.w3.org/2000/svg"
 width="79.000000pt" height="64.000000pt" viewBox="0 0 79.000000 64.000000"
 preserveAspectRatio="xMidYMid meet">
<metadata>
Created by potrace 1.10, written by Peter Selinger 2001-2011
</metadata>
<g transform="translate(0.000000,64.000000) scale(0.050000,-0.050000)"
fill="#000000" stroke="none">
<path d="M675 1218 c-73 -42 -133 -231 -65 -205 17 6 30 23 30 36 0 59 83 131
150 131 67 0 150 -72 150 -131 0 -13 14 -30 30 -36 68 -26 22 127 -57 192 -48
38 -182 46 -238 13z"/>
<path d="M202 1033 c-12 -16 -17 -43 -10 -60 14 -36 78 -45 98 -13 23 37 47
21 54 -35 5 -50 13 -55 91 -55 68 0 85 -7 85 -35 0 -50 -249 -51 -304 -1 -45
40 -111 -6 -89 -62 13 -35 84 -43 103 -12 21 35 290 25 290 -10 0 -22 -23 -30
-90 -30 -83 0 -90 -4 -90 -50 0 -52 -49 -71 -66 -25 -11 32 -84 -7 -84 -45 0
-38 73 -77 84 -45 5 14 31 25 58 25 38 0 48 10 48 50 0 38 10 50 45 50 25 0
78 6 119 13 l73 12 7 -88 6 -87 160 0 160 0 6 87 7 88 73 -12 c41 -7 94 -13
119 -13 35 0 45 -12 45 -50 0 -31 11 -50 30 -50 17 0 48 -11 70 -25 62 -38
125 29 74 80 -29 28 -41 30 -74 10 -54 -34 -60 -32 -60 25 0 46 -7 50 -90 50
-67 0 -90 8 -90 30 0 35 269 45 290 10 20 -32 85 -23 99 14 20 54 -46 95 -89
56 -51 -46 -300 -42 -300 5 0 28 17 35 85 35 78 0 86 5 91 55 8 63 10 64 64
30 60 -37 125 29 75 78 -28 29 -38 30 -67 6 -18 -16 -48 -29 -66 -29 -20 0
-34 -20 -38 -55 -8 -63 -154 -85 -176 -27 -34 88 -400 100 -468 17 -57 -70
-175 -63 -184 10 -4 36 -18 55 -40 55 -19 0 -46 12 -59 25 -32 32 -47 31 -75
-2z m761 -126 c39 -35 50 -107 17 -107 -11 0 -20 17 -20 38 0 48 -38 62 -170
62 -132 0 -170 -14 -170 -62 0 -21 -9 -38 -20 -38 -31 0 -23 74 11 109 46 45
302 44 352 -2z m-130 -208 c-3 -85 -9 -99 -43 -99 -44 0 -65 177 -24 203 46
30 70 -7 67 -104z"/>
<path d="M520 559 c0 -197 536 -191 539 6 1 19 -12 35 -29 35 -16 0 -30 -12
-30 -27 0 -62 -71 -93 -213 -93 -141 0 -207 31 -207 97 0 12 -13 23 -30 23
-17 0 -30 -18 -30 -41z"/>
<path d="M20 240 c0 -11 27 -20 60 -20 33 0 60 -9 60 -20 0 -11 -13 -20 -30
-20 -16 0 -30 -9 -30 -20 0 -11 14 -20 30 -20 17 0 30 -9 30 -20 0 -11 -13
-20 -30 -20 -16 0 -30 -9 -30 -20 0 -23 79 -28 83 -5 8 49 9 139 2 160 -11 30
-145 34 -145 5z"/>
<path d="M200 160 c0 -55 9 -100 20 -100 11 0 20 29 20 64 l0 65 33 -47 c32
-46 35 -46 60 -11 25 34 27 33 27 -17 0 -30 9 -54 20 -54 11 0 20 45 20 100 0
110 -24 128 -66 48 l-27 -52 -34 52 c-51 78 -73 63 -73 -48z"/>
<path d="M461 167 c-47 -106 -47 -107 -22 -107 10 0 30 32 44 70 25 71 57 94
57 42 0 -16 -11 -33 -25 -38 -16 -6 -10 -15 15 -25 22 -9 46 -25 54 -37 35
-53 32 12 -5 95 -51 116 -67 116 -118 0z"/>
<path d="M640 240 c0 -11 27 -20 60 -20 33 0 60 -9 60 -20 0 -11 -13 -20 -30
-20 -16 0 -30 -8 -30 -18 0 -31 76 -113 91 -97 8 8 3 28 -11 45 -19 22 -19 37
-2 57 39 47 4 93 -70 93 -37 0 -68 -9 -68 -20z"/>
<path d="M810 240 c7 -11 29 -20 50 -20 20 0 40 -11 45 -25 7 -19 16 -19 42 2
54 46 38 63 -58 63 -56 0 -87 -8 -79 -20z"/>
<path d="M1000 245 c0 -30 70 -185 84 -185 12 0 96 169 96 193 0 37 -42 -9
-61 -67 l-24 -73 -38 73 c-36 70 -57 92 -57 59z"/>
<path d="M1200 160 c0 -55 9 -100 20 -100 11 0 20 13 20 29 0 15 19 31 43 35
109 16 99 136 -12 136 l-71 0 0 -100z m116 35 c5 -24 -6 -35 -35 -35 -28 0
-41 13 -41 41 0 52 66 46 76 -6z"/>
<path d="M1380 160 c0 -115 35 -136 44 -26 l6 74 50 -74 c66 -98 80 -93 80 26
0 55 -9 100 -20 100 -11 0 -20 -29 -20 -65 l0 -65 -52 65 c-70 89 -88 82 -88
-35z"/>
<path d="M20 130 c0 -38 9 -70 20 -70 11 0 20 32 20 70 0 39 -9 70 -20 70 -11
0 -20 -31 -20 -70z"/>
<path d="M640 130 c0 -38 9 -70 20 -70 11 0 20 32 20 70 0 39 -9 70 -20 70
-11 0 -20 -31 -20 -70z"/>
<path d="M844 136 c-47 -47 -26 -76 56 -76 44 0 80 9 80 20 0 11 -22 20 -49
20 -36 0 -47 8 -38 30 14 36 -15 40 -49 6z"/>
</g>
</svg>
